<svg xmlns="http://www.w3.org/2000/svg" version="1.1" xmlns:xlink="http://www.w3.org/1999/xlink" xmlns:svgjs="http://svgjs.dev/svgjs" viewBox="0 0 1422 800" opacity="0.38"><defs><linearGradient x1="50%" y1="0%" x2="50%" y2="100%" id="oooscillate-grad"><stop stop-color="hsl(0, 0%, 53%)" stop-opacity="1" offset="0%"></stop><stop stop-color="hsl(196, 64%, 68%)" stop-opacity="1" offset="100%"></stop></linearGradient></defs><g stroke-width="1" stroke="url(#oooscillate-grad)" fill="none" stroke-linecap="round"><path d="M 0 448 Q 355.5 250 711 400 Q 1066.5 550 1422 448" opacity="0.16"></path><path d="M 0 416 Q 355.5 250 711 400 Q 1066.5 550 1422 416" opacity="0.71"></path><path d="M 0 384 Q 355.5 250 711 400 Q 1066.5 550 1422 384" opacity="0.90"></path><path d="M 0 352 Q 355.5 250 711 400 Q 1066.5 550 1422 352" opacity="0.41"></path><path d="M 0 320 Q 355.5 250 711 400 Q 1066.5 550 1422 320" opacity="0.90"></path><path d="M 0 288 Q 355.5 250 711 400 Q 1066.5 550 1422 288" opacity="0.62"></path><path d="M 0 256 Q 355.5 250 711 400 Q 1066.5 550 1422 256" opacity="0.79"></path><path d="M 0 224 Q 355.5 250 711 400 Q 1066.5 550 1422 224" opacity="0.93"></path><path d="M 0 192 Q 355.5 250 711 400 Q 1066.5 550 1422 192" opacity="0.22"></path><path d="M 0 160 Q 355.5 250 711 400 Q 1066.5 550 1422 160" opacity="0.94"></path><path d="M 0 128 Q 355.5 250 711 400 Q 1066.5 550 1422 128" opacity="0.18"></path><path d="M 0 96 Q 355.5 250 711 400 Q 1066.5 550 1422 96" opacity="0.89"></path><path d="M 0 64 Q 355.5 250 711 400 Q 1066.5 550 1422 64" opacity="0.21"></path></g></svg>